<?xml version="1.0" standalone="no"?><!DOCTYPE svg PUBLIC "-//W3C//DTD SVG 1.1//EN" "http://www.w3.org/Graphics/SVG/1.1/DTD/svg11.dtd"><svg t="1603010190001" class="icon" viewBox="0 0 1024 1024" version="1.1" xmlns="http://www.w3.org/2000/svg" p-id="8971" xmlns:xlink="http://www.w3.org/1999/xlink" width="200" height="200"><defs><style type="text/css"></style></defs><path d="M628.0704 753.1008H431.104c-33.9456 0-61.44-27.4944-61.44-61.44V424.704c0-33.9456 27.4944-61.44 61.44-61.44h197.0176c33.9456 0 61.44 27.4944 61.44 61.44v266.9568c-0.0512 33.9456-27.5456 61.44-61.4912 61.44z" fill="#DAA7FC" p-id="8972"></path><path d="M831.2832 463.9744c-14.1312 0-25.6-11.4688-25.6-25.6v-51.0976c0-14.1312 11.4688-25.6 25.6-25.6s25.6 11.4688 25.6 25.6v51.0976c0 14.1312-11.4688 25.6-25.6 25.6z" fill="#474747" p-id="8973"></path><path d="M831.2832 315.8528c14.1312 0 25.6-11.4688 25.6-25.6v-45.1072c0-48.6912-39.6288-88.32-88.32-88.32H654.336V112.64c0-14.1312-11.4688-25.6-25.6-25.6s-25.6 11.4688-25.6 25.6v44.1344H418.3552V112.64c0-14.1312-11.4688-25.6-25.6-25.6s-25.6 11.4688-25.6 25.6v44.1344H257.3312c-48.6912 0-88.32 39.6288-88.32 88.32V834.56c0 48.6912 39.6288 88.32 88.32 88.32h511.1808c48.6912 0 88.32-39.6288 88.32-88.32v-301.568c0-14.1312-11.4688-25.6-25.6-25.6s-25.6 11.4688-25.6 25.6V834.56c0 20.48-16.64 37.12-37.12 37.12H257.3312c-20.48 0-37.12-16.64-37.12-37.12V245.1456c0-20.48 16.64-37.12 37.12-37.12H367.104v18.944c0 14.1312 11.4688 25.6 25.6 25.6s25.6-11.4688 25.6-25.6v-18.944h184.7808v18.944c0 14.1312 11.4688 25.6 25.6 25.6s25.6-11.4688 25.6-25.6v-18.944h114.2272c20.48 0 37.12 16.64 37.12 37.12v45.1072c0.0512 14.1312 11.52 25.6 25.6512 25.6z" fill="#474747" p-id="8974"></path><path d="M701.7984 440.064h-384c-14.1312 0-25.6-11.4688-25.6-25.6s11.4688-25.6 25.6-25.6h384c14.1312 0 25.6 11.4688 25.6 25.6s-11.4688 25.6-25.6 25.6zM608.8704 571.392H317.7984c-14.1312 0-25.6-11.4688-25.6-25.6s11.4688-25.6 25.6-25.6h291.072c14.1312 0 25.6 11.4688 25.6 25.6s-11.4688 25.6-25.6 25.6zM514.4064 697.344h-196.608c-14.1312 0-25.6-11.4688-25.6-25.6s11.4688-25.6 25.6-25.6h196.6592c14.1312 0 25.6 11.4688 25.6 25.6s-11.4688 25.6-25.6512 25.6z" fill="#474747" p-id="8975"></path></svg>